<?xml version="1.0" encoding="UTF-8"?>
<svg id="Layer_1" xmlns="http://www.w3.org/2000/svg" version="1.1" viewBox="0 0 1123.5 902.5">
  <!-- Generator: Adobe Illustrator 29.6.1, SVG Export Plug-In . SVG Version: 2.1.1 Build 9)  -->
  <defs>
    <style>
      /* Color Variables - Adjust these to change the entire logo's color scheme */
      :root {
        --card-bg-color: #000000;           /* Black card backgrounds */
        --animal-color: #000000;            /* Black animal silhouettes */
        --card-back-bg: #000000;            /* Black card back background */
        --card-back-symbol: transparent;    /* Transparent question mark shows background */
        --text-color: #000000;              /* Text color */
      }
      
      .st0, .st1 {
        isolation: isolate;
      }

      .st1 {
        font-family: 'Special Elite', cursive;
        font-size: 120px;
      }
      
      /* Apply color variables to paths */
      path {
        fill: var(--animal-color);
      }
      
      text {
        fill: var(--text-color);
      }
      
      /* Card back styling */
      .card-back {
        opacity: 0;
      }
      
      .card-back rect {
        fill: var(--card-back-bg);
      }
      
      .card-back text {
        fill: url(#paperTexture);
        transform: scaleX(-1);
        transform-origin: center;
      }
      
      /* Card styling with drop shadows */
      g[id$="_card"] {
        filter: drop-shadow(3px 5px 8px rgba(0, 0, 0, 0.5));
      }
    </style>
    
    <!-- Paper texture pattern -->
    <pattern id="paperTexture" patternUnits="userSpaceOnUse" width="300" height="300">
      <rect width="300" height="300" fill="#e8dcc8"/>
      <image href="paper-texture.png" width="300" height="300" opacity="1"/>
    </pattern>
  </defs>
  <g>
    <g id="rabbit_card">
      <g class="card-back">
        <rect x="1.78" y="4.01" width="211.59" height="211.59" rx="5"/>
        <text x="107.575" y="109.805" style="transform-origin: 107.575px 109.805px" font-size="148" font-family="Arial, sans-serif" font-weight="bold" text-anchor="middle" dominant-baseline="central">?</text>
      </g>
      <g class="card-front">
        <path d="M1.78,4.01v211.59h211.59V4.01H1.78ZM107.7,200.85c-50.21,0-90.92-40.7-90.92-90.92S57.49,19.01,107.7,19.01s90.92,40.71,90.92,90.92-40.71,90.92-90.92,90.92h0Z"/>
        <path d="M107.7,201.6c36.4,0,67.81-21.4,82.33-52.3-17.17-25.59-41.94-31.68-41.94-31.68l-28.53-15.54c-2.93-6.59,2.63-13.41,2.63-13.41,12.29-11.05,20.13-32.44,20.13-32.44,10.1-10.1,3.88-17.87,3.88-17.87-8.55,6.22-17.87,8.55-17.87,8.55v-18.65c-31.86,20.2-37.3,63.72-37.3,63.72-15.54,3.88-22.81,8.76-24.93,16.32-3.23,11.52-7.71,22.46-7.71,27.2s7.64,11.01,10.88,13.99,17.1,1.55,17.1,1.55c-.78,7.77,3.11,15.54,8.55,20.98s6.22,24.09,6.22,24.09c-.3,1.52-1.09,3.33-2.02,5.1,2.83.26,5.69.41,8.59.41v-.02h-.01Z"/>
      </g>
    </g>
    <g id="pig_card">
      <g class="card-back">
        <rect x="456.7" y="4.01" width="211.59" height="211.59" rx="5"/>
        <text x="562.495" y="109.805" style="transform-origin: 562.495px 109.805px" font-size="148" font-family="Arial, sans-serif" font-weight="bold" text-anchor="middle" dominant-baseline="central">?</text>
      </g>
      <g class="card-front">
        <path d="M456.7,4.01v211.59h211.59V4.01h-211.59ZM562.62,200.85c-50.21,0-90.92-40.7-90.92-90.92s40.7-90.92,90.92-90.92,90.92,40.71,90.92,90.92-40.71,90.92-90.92,90.92h0Z"/>
        <path d="M595.72,194.78c34.04-13.14,58.2-46.17,58.2-84.85,0-18.57-5.57-35.83-15.12-50.22-10.42,1.46-18.56,3.33-22.8,5.03-11.2,4.49-20.94,9.79-27.91,13.99-7.6-3.38-22.41-9.09-34.67-8.44l3.32,8.07c-5.28-1.42-10.93-2.39-16.05-2.12,0,0,13.84,22.16,11.5,27.93-1.74,4.27-17.25,18.89-23.82,19.71s-13.96,0-13.96,0c0,0-3.53,18.75,0,27.11,2.62,6.2,30.39,16.43,81.32,27.11v16.69h-.01Z"/>
      </g>
    </g>
    <g id="lion_card">
      <g class="card-back">
        <rect x="684.16" y="4.01" width="211.59" height="211.59" rx="5"/>
        <text x="789.955" y="109.805" style="transform-origin: 789.955px 109.805px" font-size="148" font-family="Arial, sans-serif" font-weight="bold" text-anchor="middle" dominant-baseline="central">?</text>
      </g>
      <g class="card-front">
        <path d="M684.16,4.01v211.59h211.59V4.01h-211.59ZM790.09,200.85c-50.21,0-90.92-40.7-90.92-90.92s40.71-90.92,90.92-90.92,90.92,40.71,90.92,90.92-40.7,90.92-90.92,90.92h0Z"/>
        <path d="M841.94,78.98s10.08-7.33,3.6-11.85c-9.99-6.97-21.56-1.16-24.92.78l-26.06-3.04c-15.47,0-31.02,19.28-31.02,19.28l-26.19,19.36c-3.02,1.13-4.62,4.42-3.65,7.5l13.44,17.51c.8,2.51,3.13,4.22,5.76,4.22,0,0,10.51-1.72,11.77-1.27,22.08,7.82,29.42,3.7,29.42,3.7,4.41,1.55,28.06,41.74,36.79,56.6,29.92-14.88,50.49-45.76,50.49-81.45,0-4.58-.34-9.07-.99-13.47-37.39-15.1-38.45-17.86-38.45-17.86h.01Z"/>
      </g>
    </g>
    <g id="rhino_card">
      <g class="card-back">
        <rect x="1.78" y="231.47" width="211.59" height="211.59" rx="5"/>
        <text x="107.575" y="337.265" style="transform-origin: 107.575px 337.265px" font-size="148" font-family="Arial, sans-serif" font-weight="bold" text-anchor="middle" dominant-baseline="central">?</text>
      </g>
      <g class="card-front">
        <path d="M1.78,231.47v211.59h211.59v-211.59H1.78ZM107.7,428.31c-50.21,0-90.92-40.71-90.92-90.92s40.71-90.92,90.92-90.92,90.92,40.71,90.92,90.92-40.71,90.92-90.92,90.92Z"/>
        <path d="M198.99,337.77c0-16.52-4.41-32.01-12.11-45.37-7.97,3.56-15.28,6.95-15.28,6.95h0c-15.49-.71-25.61,5.7-25.61,5.7l-21.02-8.87c-1.16,7.91,6.49,18.75,6.49,18.75,0,0-5.17,34.44-18.85,32.29-8.66-1.36-15.4-7.46-15.4-7.46-.92,16.79,1.25,23.75,1.25,23.75-15.36,6.53-65.43-16.82-65.43-16.82,34.85,31.64,48.6,39.09,51.18,40.34.03,4.28.48,10.76,2.76,14.83,3.64,6.49,4.05,8.46,9.96,7.24,0,0,.87,6.71,36.12,0,0,0,22.49-2.88,37.92-21.42h0l16.05-4.77c7.62-13.3,11.98-28.71,11.98-45.13h0Z"/>
      </g>
    </g>
    <g id="bull_card">
      <g class="card-back">
        <rect x="1.78" y="686.4" width="211.59" height="211.59" rx="5"/>
        <text x="107.575" y="792.195" style="transform-origin: 107.575px 792.195px" font-size="148" font-family="Arial, sans-serif" font-weight="bold" text-anchor="middle" dominant-baseline="central">?</text>
      </g>
      <g class="card-front">
        <path d="M1.78,686.4v211.59h211.59v-211.59H1.78ZM107.7,883.24c-50.21,0-90.92-40.71-90.92-90.92s40.71-90.92,90.92-90.92,90.92,40.71,90.92,90.92-40.71,90.92-90.92,90.92Z"/>
        <path d="M199.25,794.11c0-11.8-2.25-23.08-6.34-33.43-2.47,0-5.16.05-7.88.13,0,0-6.41-12.24-15.74-17.2s-24.2-21.28-27.4-27.99c0,0-3.5,11.37,14.58,34.11s-23.91,15.74-31.48,18.95c0,0-6.41-4.08-28.86,3.21-22.45,7.29-28.86-3.5-26.24-13.7s4.37-32.65-5.25-39.36c0,0,2.91,16.67-3.5,26.12s-10.49,35.1,10.2,43.56c0,0-4.57,2.62-15.4,0,0,0-6.75,12.83,27.35,17.49,0,0,2.04,4.37,4.37,6.41,0,0-.29,12.54,2.33,16.91s1.75,13.99-.29,14.87c-2.04.87-5.54,5.25-5.83,7.87s-2.33,11.08,5.83,17.2c8.16,6.12,19.24,7.58,23.91,5.54s10.58-12.24,16.08-11.95c5.49.29,9.58,10.77,14.82,12.82l1.71,1.12c31.3-14.36,53.03-45.98,53.03-82.67h0Z"/>
      </g>
    </g>
    <g id="horse_card">
      <g class="card-back">
        <rect x="911.63" y="231.47" width="211.59" height="211.59" rx="5"/>
        <text x="1017.425" y="337.265" style="transform-origin: 1017.425px 337.265px" font-size="148" font-family="Arial, sans-serif" font-weight="bold" text-anchor="middle" dominant-baseline="central">?</text>
      </g>
      <g class="card-front">
        <path d="M911.63,231.47v211.59h211.59v-211.59h-211.59ZM1017.55,428.31c-50.21,0-90.92-40.71-90.92-90.92s40.71-90.92,90.92-90.92,90.92,40.71,90.92,90.92-40.71,90.92-90.92,90.92Z"/>
        <path d="M1020.28,281.3s-4.74,9.85-5.11,16.41c0,0-5.11-.36-13.86-10.21,0,0,1.6,11.1,6.09,14.48,0,0-9.04,15.73-8.99,20.23.12,11.76-14.61,47.2-19.67,59s3.93,19.67,10.11,21.35c6.18,1.69,17.49-1.6,18.54-3.37,1.39-2.33,3.27-10.77,5.95-13.23,6.56-6.05,16.29-7.7,22.61-18.6,6.66-11.48,14.59,1.09,17.14,10.58,2.26,8.37,11.62,26.42,17.55,34.54,23.33-16.46,38.56-43.62,38.56-74.34,0-3.45-.2-6.85-.57-10.19-20.28-13.68-52.27-31.61-81.07-32.06,0,0-3.28-12.4-7.29-14.59h0Z"/>
      </g>
    </g>
    <g id="dog_card">
      <g class="card-back">
        <rect x="0.78" y="458.93" width="211.59" height="211.59" rx="5"/>
        <text x="106.575" y="564.725" style="transform-origin: 106.575px 564.725px" font-size="148" font-family="Arial, sans-serif" font-weight="bold" text-anchor="middle" dominant-baseline="central">?</text>
      </g>
      <g class="card-front">
        <path d="M.78,458.93v211.59h211.59v-211.59H.78ZM106.7,655.77c-50.21,0-90.92-40.71-90.92-90.92s40.71-90.92,90.92-90.92,90.92,40.71,90.92,90.92-40.71,90.92-90.92,90.92Z"/>
        <path d="M196.5,585.73c-27.88-48.77-30.73-43.41-35.88-47.27-5.17-3.88-10.08-3.09-10.08-3.09,0,0-.26-1.31-1.29-3.64s-6.98-5.69-10.08-10.05-1.29-14.77-7.5-13.74-8.53,27.41-8.53,27.41c-4.65.26-7.76-2.33-13.45-7.24s-10.79-7.21-10.79-7.21c-5.3-6.54-8.66-13.03-9.64-12.96-.97.07-1.39,4.48-1.17,7.8.8,12.36,8.67,32.28,8.67,32.28-5.43,6.21-9.05,14.48-11.89,21.72s2.33,16.9,2.33,16.9c0,0-2.84,5.85-6.72,12.32s-23.79,15.77-22.24,21.2,11.12,9.05,11.12,9.05c7.24,7.76,29.22,4.4,29.22,4.4l14.36,3.31,14.93,17.38c34.1-7.67,60.94-34.49,68.65-68.57h-.02Z"/>
      </g>
    </g>
    <g id="elephant_card">
      <g class="card-back">
        <rect x="229.24" y="4.01" width="211.59" height="211.59" rx="5"/>
        <text x="335.035" y="109.805" style="transform-origin: 335.035px 109.805px" font-size="148" font-family="Arial, sans-serif" font-weight="bold" text-anchor="middle" dominant-baseline="central">?</text>
      </g>
      <g class="card-front">
        <path d="M229.24,4.01v211.59h211.59V4.01h-211.59ZM335.16,200.85c-50.21,0-90.92-40.7-90.92-90.92s40.71-90.92,90.92-90.92,90.92,40.71,90.92,90.92-40.71,90.92-90.92,90.92h0Z"/>
        <path d="M400.14,45.1c-5.38-1.04-11.85-1.09-19.62.53,0,0-12.5-5.24-22.99-2.02s-22.28,18.55-24.6,22.18-3.53,7.36-3.63,8.77-9.48,11.29-10.59,14.52-.61,5.54-3.33,7.36c-2.93.21-7,.03-11.27-1.62,0,0,3.96,2.01,7.98,3.51-3.8,1.7-10.35,3-21.61-.78,0,0,6.65,7.97,23.09,7.36,0,0-1.61,17.54,1.21,24.4,2.82,6.86,3.43,17.84,3.23,26.21-.2,8.37-1.61,23.99,7.76,28.43,9.38,4.44,18.65,3.93,20.16,1.41s-5.95-7.66-5.95-7.66c0,0-2.72-1.01-2.32,3.12,0,0-5.75.4-6.35-3.73-.61-4.13,1.3-43.05,2.46-46.88,1.17-3.83,5.1-9.78,6.41-18.55s14.21-4.34,17.64,1.11c3.43,5.44,18.45,3.53,21.68,6.25,0,0,.88,36.81,12.55,61.92,21.17-16.65,34.76-42.49,34.76-71.5,0-25.13-10.2-47.89-26.68-64.34h.01Z"/>
      </g>
    </g>
    <g id="cat_card">
      <g class="card-back">
        <rect x="684.16" y="686.4" width="211.59" height="211.59" rx="5"/>
        <text x="789.955" y="792.195" style="transform-origin: 789.955px 792.195px" font-size="148" font-family="Arial, sans-serif" font-weight="bold" text-anchor="middle" dominant-baseline="central">?</text>
      </g>
      <g class="card-front">
        <path d="M684.16,686.4v211.59h211.59v-211.59h-211.59ZM790.09,883.24c-50.21,0-90.92-40.71-90.92-90.92s40.71-90.92,90.92-90.92,90.92,40.71,90.92,90.92-40.7,90.92-90.92,90.92Z"/>
        <path d="M791.76,883.33c41.43-.58,76.16-28.87,86.49-67.18l-8.18-8.36s-13.66-19.96-28.36-34.34c-16.42-16.05-24.75-10.38-30.5-17.09s-28.55-23.01-25.4-14c.21.59.39,1.16.56,1.72-1-.78-2.1-1.47-3.01-1.61-2.23-.35,4.93,12.21,2.02,22.61-3.47.82-26.96,7-27.84,23.86-.96,18.21-9.9,25.9-12.46,28.27-4.01,3.71,14.38,23.48,20.12,25.4s15.81-4.79,15.81-4.79c15.33-2.4,11.5,7.67,11.5,7.67-4.36,16.72-3.09,29.4-.76,37.84h.01Z"/>
      </g>
    </g>
    <g id="antelope_card">
      <g class="card-back">
        <rect x="229.24" y="686.4" width="211.59" height="211.59" rx="5"/>
        <text x="335.035" y="792.195" style="transform-origin: 335.035px 792.195px" font-size="148" font-family="Arial, sans-serif" font-weight="bold" text-anchor="middle" dominant-baseline="central">?</text>
      </g>
      <g class="card-front">
        <path d="M229.24,686.4v211.59h211.59v-211.59h-211.59ZM335.16,883.24c-50.21,0-90.92-40.71-90.92-90.92s40.71-90.92,90.92-90.92,90.92,40.71,90.92,90.92-40.71,90.92-90.92,90.92h0Z"/>
        <path d="M404.21,853.07c-19.05-7-31.25-16.36-33.88-18.49-.02-.05-.05-.09-.09-.13-11.16-12.39-15.71-22.53-17.56-28.96,1.26-1.2,4.27-1.77,7.18-2.32,3.53-.67,7.18-1.36,8.81-3.28,2.71-3.21,7.18-19.52,5.97-23.6-.19-.64-.52-1.03-.99-1.17-.12-.04-.26-.05-.4-.05-3.22,0-18.34,11.78-22.29,14.91-.84-2.83-2.72-4.32-5.48-4.32-3.02,0-5.77,1.96-7.88,4.12,19.53-37.64,38.02-53.44,45.32-58.62l.68-.45c.6-.4,1.21-.8,1.83-1.19.29-.18.38-.56.2-.85-.17-.29-.55-.39-.85-.23-.04.02-.94.52-2.57,1.68-6.84,4.49-13.47,9.41-19.76,14.67,7.22-8.14,19.74-19.95,19.89-20.09.24-.23.27-.61.05-.87s-.6-.29-.86-.09c-25.51,19.72-41.9,43.04-42.35,43.68-16.63,18.75-25.69,35.3-29.11,41.54-5.09,9.29-17.36,19.58-24.7,25.72-1.33,1.11-2.49,2.09-3.42,2.89-5.88,5.11-2.46,11.01-1.79,12.04.42,4.7,4.21,7.28,10.71,7.28,2.14,0,4.22-.29,5.35-.55,2.22-.49,3.38-3.51,3.76-4.72.25,0,.58.01,1,.01,2.94,0,10.88-.29,21.14-2.96,1.77-.46,3.40-.69,4.86-.69,7.68,0,10.64,6.4,14.39,14.51.45.98.92,1.99,1.41,3.01,2.39,5.02,6.9,11.31,11.13,16.69,19.87-3.99,37.39-14.47,50.27-29.12h.03Z"/>
      </g>
    </g>
    <g id="moose_card">
      <g class="card-back">
        <rect x="456.7" y="686.4" width="211.59" height="211.59" rx="5"/>
        <text x="562.5" y="792.2" style="transform-origin: 562.5px 792.2px" font-size="148" font-family="Arial, sans-serif" font-weight="bold" text-anchor="middle" dominant-baseline="central">?</text>
      </g>
      <g class="card-front">
        <path d="M456.7,686.4v211.59h211.59v-211.59h-211.59ZM562.62,883.24c-50.21,0-90.92-40.71-90.92-90.92s40.7-90.92,90.92-90.92,90.92,40.71,90.92,90.92-40.71,90.92-90.92,90.92Z"/>
        <path d="M646.08,832.03c-22.09-.43-33.13-2.74-33.13-2.74-14.82-2.1-24.95-16.68-31.38-27.53,7.88-7.94,11.35-20.42,10.35-21.7s-21.97,6.36-26.76,9.92c-6.09-.47-11.19,1.98-11.19,1.98l-1.5-3.41c4.22-.95,18.52-7.08,24.65-11.44s28.87-6.54,38-9.4c9.12-2.86,13.62-13.62,13.48-14.71s-4.22-.14-4.22-.14c0,0,.68-1.63-.68-2.59-1.36-.95-6.57,2-6.57,2,0,0,2.22-4.72,1.53-5.4s-4.27,2.72-5.36,2.04c-1.09-.68,2.64-8.17.73-8.31-1.91-.14-6.38,8.12-8.29,8.12s.39-7.03-.16-7.03-1.36.82-2.32,2.18-5.31,2.18-6.54,2.18-.68-2.18-2.32-2.86c-1.63-.68-8.09,5.57-9.86,5.16s3.08-10.36.93-11.29-5.77,8.25-7,8.12c-1.23-.14-.47-5.51-2.06-5.94s-1.09,3.27-3.41,2.72-1.5-9.94-1.91-11.44-1.77-3.68-3.95-3.54-1.77,25.06-2.72,25.06-.95-1.5-1.7-6.67-2.66-6.95-3.34-7.08-1.5,1.09-.95,4.36c.54,3.27,3.81,14.16,0,13.48s-3.41-23.7-3.41-23.7c0,0,0-4.09-3.54-3.95s.82,24.24,1.91,29.01c1.09,4.77-6.54,24.65-13.08,24.38-6.54-.27-12.8-23.15-13.35-24.52s-3.13-2.18-4.77-1.36c-1.63.82.95,9.81,2.72,12.53,1.77,2.72,5.17,10.49-.82,5.72s-6.95-21.52-8.44-21.79c-1.5-.27-2.86,1.23-2.86,1.23,0,0-4.63-3.13-2.04,8.04s22.47,23.02,22.47,23.02c0,0,4.22,5.17,7.9,6.4s6.27,3.68,6.27,3.68c0,0-2.45.54-6.54,2.59-4.09,2.04-11.3,4.49-20.97,5.58s-12.94,6.67-12.94,6.67c0,0-2.8,1.65-6.13,5.72-1.59,1.94-2.86,9.53-1.91,12.53s7.22,3.27,7.22,3.27c0,0,1.5,4.9,6.67,5.18,5.17.27,5.99-3.13,8.17-4.63s10.62,1.23,10.62,1.23c2.04,8.58,2.72,16.48,7.08,18.39,4.36,1.91,1.09,20.02,4.36,20.84s2.18-7.08,3.81-7.76,0-5.58,2.04-6.13.54-5.31,1.77-6.27,3.41-2.18,3.41-2.18l19.84,33.93c32.01-3.58,58.99-23.77,72.13-51.75h.06,0Z"/>
      </g>
    </g>
    <g id="hippo_card">
      <g class="card-back">
        <rect x="911.25" y="686.4" width="211.59" height="211.59" rx="5"/>
        <text x="1017.045" y="792.195" style="transform-origin: 1017.045px 792.195px" font-size="148" font-family="Arial, sans-serif" font-weight="bold" text-anchor="middle" dominant-baseline="central">?</text>
      </g>
      <g class="card-front">
        <path d="M911.25,686.4v211.59h211.59v-211.59h-211.59ZM1017.18,883.24c-50.21,0-90.92-40.71-90.92-90.92s40.71-90.92,90.92-90.92,90.92,40.71,90.92,90.92-40.71,90.92-90.92,90.92Z"/>
        <path d="M1033.45,746.61s.52-6.74-3.11-6.48-4.41,6.48-4.41,6.48c0,0-5.44,5.7-8.81,10.37s-6.48,5.19-9.33,5.45-5.96,2.33-7.52,11.67,1.56,7.78,2.07,12.19c.52,4.41-23.08,30.08-33.97,32.41-10.89,2.33-11.15,15.3-9.59,21.26s10.89,15.82,20.74,18.15c0,0,4.15,5.45,16.07,6.48,11.93,1.04,30.08-5.96,40.19-17.37s11.93-13.22,18.67-11.41,13.74,5.45,23.59,3.63c0,0,1.81,9.59,11.93,7.52l1.83-.02c10.94-15.01,17.41-33.5,17.41-53.5s-6.39-38.27-17.21-53.23c-3.25-.32-6.27-.5-8.82-.5-10.24,0-39.36,1.2-49.73,6.91h0Z"/>
      </g>
    </g>
    <g id="monkey_card">
      <g class="card-back">
        <rect x="911.63" y="458.93" width="211.59" height="211.59" rx="5"/>
        <text x="1017.425" y="564.725" style="transform-origin: 1017.425px 564.725px" font-size="148" font-family="Arial, sans-serif" font-weight="bold" text-anchor="middle" dominant-baseline="central">?</text>
      </g>
      <g class="card-front">
        <path d="M911.63,458.93v211.59h211.59v-211.59h-211.59ZM1017.55,655.77c-50.21,0-90.92-40.71-90.92-90.92s40.71-90.92,90.92-90.92,90.92,40.71,90.92,90.92-40.71,90.92-90.92,90.92Z"/>
        <g>
          <path d="M1059.9,541.14c-2.09-1.41-4.2-2.75-6.11-3.81-1.63-14.72-5.09-20.33-14.55-14.58-7.09-12.9-37.12-17.64-57.88,2.96-20.76,20.61-20.53,25.27-15.64,29.69s5.45,16.39.39,28.18-1,14.48-1,14.48c0,0-1.86,9.43,9.39,9.47-2.6,6.72,1.04,10.36,8.11,16.3,4.28,3.6,13.29.59,21.2-3.9,14.01,12.02,23.34,34.07,26.44,42.19,37.49-6.83,68.9-35.73,77-75.35,1.43-6.98,2.05-13.93,1.95-20.77-18.54-13.56-36.93-21.82-48.89-24.92-.14.01-.28.04-.42.05h.01Z"/>
          <path d="M999.66,662.72c10,1.42,19.91,1.23,29.43-.39-11.45-13.16-22.78-6.05-29.43.39Z"/>
        </g>
      </g>
    </g>
    <g id="Squirrel_card">
      <g class="card-back">
        <rect x="911.63" y="4.01" width="211.59" height="211.59" rx="5"/>
        <text x="1017.425" y="109.805" style="transform-origin: 1017.425px 109.805px" font-size="148" font-family="Arial, sans-serif" font-weight="bold" text-anchor="middle" dominant-baseline="central">?</text>
      </g>
      <g class="card-front">
        <path d="M911.63,4.01v211.59h211.59V4.01h-211.59ZM1017.55,200.85c-50.21,0-90.92-40.7-90.92-90.92s40.71-90.92,90.92-90.92,90.92,40.71,90.92,90.92-40.71,90.92-90.92,90.92h0Z"/>
        <path d="M1088.76,111.18c-6.42.58-7.44-.88-11.53-2.77-4.09-1.9-8.03-6.42-16.2-10.07-8.17-3.65-12.84-4.53-12.84-4.53,0,0-.73-2.92,1.75-5.4s.73-6.42-.88-11.38-4.67-9.49-8.9-12.11c-4.23-2.63-6.57-.29-8.76,3.65-2.19,3.94-1.17,5.25-3.21,11.09-2.04,5.84-2.77,8.9-2.77,8.9,0,0-2.04-.73-5.11-.15,0,0,1.75-1.46,1.46-5.11s-.88-5.25-1.61-7.73-1.31-5.11-4.67-4.38-4.52,5.25-5.55,9.34-2.19,3.94-3.5,7.44-1.31,5.55-1.31,5.55c0,0-4.09,3.06-10.65,8.76-6.57,5.69-9.78,11.53-12.55,16.2-2.77,4.67-3.36,5.25-5.69,8.17s-3.79,3.36-2.63,6.28,3.5,3.36,6.57,2.92c0,0,3.94,8.76,12.84,9.92,0,0,2.04,3.36,4.96,5.25,2.92,1.9,4.96,1.31,12.84,2.33s10.65,1.61,16.78,5.4,12.7,10.22,15.61,16.34c2.92,6.13.29,11.82,5.4,23.06.25.56.49,1.08.73,1.6,35.18-13.72,60.33-47.51,61.35-87.3-10.55-1.29-16.36-1.78-21.95-1.27h.02,0Z"/>
      </g>
    </g>
  </g>
  <g id="Text" class="st0">
    <g id="Mammal" class="st0">
      <text class="st1" text-anchor="middle" transform="translate(561.75 380)"><tspan x="0" y="0">Mystery</tspan></text>
    </g>
    <g id="Mystery" class="st0">
      <text class="st1" text-anchor="middle" transform="translate(561.75 520)"><tspan x="0" y="0">Mammal</tspan></text>
    </g>
    <g id="Subtitle" class="st0">
      <text class="st1" style="font-size: 38px; opacity: 0.75;" text-anchor="middle" transform="translate(561.75 620)"><tspan x="0" y="0">The Phylogenetic Guessing Game</tspan></text>
    </g>
  </g>
</svg>







