<?xml version="1.0" encoding="UTF-8"?>
<svg id="Layer_2" data-name="Layer 2" xmlns="http://www.w3.org/2000/svg" viewBox="0 0 22.69 35.76">
  <defs>
    <style>
      .cls-1 {
        fill: #272525;
      }
    </style>
  </defs>
  <g id="Layer_1-2" data-name="Layer 1">
    <g id="light">
      <path class="cls-1" d="M9.34,5.91C4.19,5.91,0,10.1,0,15.25c0,1.2.07,2.26.45,3.8.67,2.72,2.31,6.46,2.87,7.68-.25.34-.39.74-.39,1.16,0,.53.2,1.02.56,1.4-.35.37-.55.85-.56,1.36,0,.6.25,1.14.69,1.54-.32.36-.5.82-.5,1.31-.01,1.17,1.01,2.13,2.27,2.15l8.43.11s.02,0,.03,0c.63,0,1.23-.24,1.66-.66.4-.39.62-.9.62-1.43,0-.6-.25-1.14-.69-1.54.32-.36.5-.82.5-1.31,0-.53-.2-1.02-.56-1.4.35-.37.55-.85.56-1.36,0-.53-.2-1.01-.54-1.38.58-1.28,2.18-4.94,2.84-7.63.37-1.54.45-2.6.45-3.8,0-5.15-4.19-9.34-9.34-9.34ZM14.59,34.17c-.19.19-.47.3-.77.29l-8.43-.11c-.55,0-.99-.38-.99-.83,0-.35.28-.65.68-.76.3-.08.5-.35.48-.66-.01-.31-.24-.56-.54-.61-.47-.08-.81-.42-.8-.81,0-.33.26-.63.64-.75.27-.08.46-.34.46-.62,0-.29-.18-.54-.45-.62-.39-.12-.65-.43-.64-.77,0-.16.06-.29.13-.39h10.04c.15.15.24.33.24.53,0,.33-.26.63-.64.75-.27.08-.46.34-.46.62,0,.28.18.54.45.62.39.12.65.43.64.77,0,.35-.28.65-.68.76-.3.08-.5.35-.48.66.01.31.24.56.54.61.46.08.81.43.8.81,0,.24-.13.41-.23.51ZM16.97,18.74c-.64,2.59-2.26,6.29-2.79,7.47H4.5c-.53-1.18-2.15-4.87-2.79-7.46-.34-1.42-.41-2.39-.41-3.49,0-4.43,3.61-8.04,8.04-8.04s8.04,3.61,8.04,8.04c0,1.11-.07,2.08-.41,3.49Z"/>
      <path class="cls-1" d="M22.18,5.17l-3.97,2.18c-.16.09-.22.3-.13.46.04.06.09.11.15.14.1.05.21.05.31,0l3.97-2.18c.16-.09.22-.3.13-.46-.09-.16-.3-.22-.46-.13Z"/>
      <path class="cls-1" d="M16.29,6.38c.2.05.41-.07.47-.27l1.77-5.59c.07-.21-.05-.43-.26-.5-.21-.07-.43.05-.5.26l-1.77,5.59c-.07.21.05.43.26.5,0,0,.02,0,.03,0Z"/>
      <path class="cls-1" d="M8.08,8.94c-1.46.03-4.29.94-4.5,4.15-.03.43.3.8.73.83h0c.43.03.8-.3.83-.73.01-.21.04-.4.09-.6.33-1.29,1.37-1.79,2.19-1.99.38-.09.67-.1.7-.1.43-.01.77-.37.76-.8,0-.42-.36-.76-.8-.76Z"/>
    </g>
  </g>
</svg>