<?xml version="1.0" encoding="UTF-8"?>
<svg id="Layer_2" data-name="Layer 2" xmlns="http://www.w3.org/2000/svg" viewBox="0 0 34.32 33.4">
  <defs>
    <style>
      .cls-1 {
        fill: #272525;
      }
    </style>
  </defs>
  <g id="Layer_1-2" data-name="Layer 1">
    <g id="map">
      <path class="cls-1" d="M5.85,9.72c-.02-.13-.13-.23-.27-.21-.22.03-.4.05-.53.07-.18.03-.29.05-.29.05-.13.03-.21.16-.19.29.03.11.13.19.24.19.02,0,.04,0,.05,0,0,0,.29-.06.78-.12,0,0,.02,0,.02,0,.12-.03.21-.14.19-.26Z"/>
      <path class="cls-1" d="M27.99,21.26c-.1.08-.19.16-.29.24-.11.08-.13.24-.04.34.05.06.12.09.19.09.05,0,.1-.02.14-.04,0,0,0,0,.01,0,.11-.08.21-.17.31-.26.32-.28.63-.59.93-.93.09-.1.08-.26-.02-.34-.1-.09-.26-.08-.34.02-.18.21-.37.41-.57.59-.11.1-.22.2-.33.3Z"/>
      <path class="cls-1" d="M14.75,12.79s.11.07.17.07.12-.02.17-.07c.1-.1.1-.25,0-.35-.16-.17-.34-.32-.51-.48-.11-.09-.22-.18-.33-.27-.16-.12-.31-.25-.48-.37-.11-.08-.26-.05-.34.06-.08.11-.05.26.06.34.26.18.51.39.76.6.11.1.22.2.33.3.05.05.11.1.17.15Z"/>
      <path class="cls-1" d="M16.62,15.46c.04.09.13.14.22.14.04,0,.07,0,.11-.02.12-.06.17-.21.11-.33-.17-.35-.37-.69-.57-1.01-.1-.16-.2-.32-.3-.47,0,0-.02-.02-.02-.02-.08-.09-.21-.11-.32-.04-.11.08-.14.23-.06.34.13.19.25.39.38.59.11.19.22.39.33.59.04.08.09.16.13.24Z"/>
      <path class="cls-1" d="M20.17,21.3s.07.03.11.03c.06,0,.13-.02.17-.07.09-.1.09-.25,0-.35-.09-.09-.18-.19-.28-.28-.11-.12-.22-.24-.33-.37-.16-.19-.32-.39-.47-.59-.08-.11-.23-.13-.34-.05-.11.08-.13.23-.05.34.28.37.57.72.86,1.03.09.09.17.18.26.27.02.02.04.03.07.04Z"/>
      <path class="cls-1" d="M18.27,18.64s.05-.01.08-.02c.01,0,.03,0,.04-.01.12-.07.16-.22.09-.33-.05-.08-.09-.17-.14-.25-.11-.2-.22-.41-.33-.63-.1-.2-.19-.39-.28-.6-.06-.12-.2-.18-.32-.12-.12.05-.18.2-.12.32.23.51.47,1,.73,1.45.01.02.02.05.04.07.04.08.13.12.21.12Z"/>
      <path class="cls-1" d="M8.93,10.02s.02,0,.03,0c.12,0,.23-.09.24-.21.02-.13-.08-.26-.21-.27-.22-.03-.44-.05-.67-.07-.11,0-.22-.02-.33-.02-.24-.01-.47-.03-.71-.03h0c-.13,0-.24.11-.25.24,0,.13.11.25.24.25.24,0,.48.01.72.03.11,0,.22.02.33.03.2.02.41.04.6.06Z"/>
      <path class="cls-1" d="M29.95,19.38s.09.04.13.04c.03,0,.05-.01.08-.02.05-.02.09-.04.12-.09.15-.23.29-.47.43-.71.07-.12.03-.27-.09-.33-.12-.07-.27-.02-.33.09-.04.07-.09.14-.13.21-.09.16-.19.32-.29.47-.07.11-.04.26.07.34Z"/>
      <path class="cls-1" d="M10.17.07c-.15-.09-.33-.09-.48-.02L.26,4.96c-.16.08-.26.25-.26.43v27.11c0,.17.09.33.24.42.08.05.17.07.25.07.08,0,.15-.02.23-.06l9.43-4.91c.16-.08.26-.25.26-.43V10.25s.08.08.13.1c.51.14,1,.33,1.47.54v17.12c0,.18.1.35.26.43l9.43,4.91c.07.04.15.06.23.06.09,0,.18-.02.25-.07.15-.09.24-.25.24-.42v-10.1c.21.09.43.16.64.22.02,0,.04,0,.06,0,.11,0,.21-.07.24-.18.04-.13-.04-.26-.17-.3-.26-.07-.52-.16-.77-.28V5.8c0-.18-.1-.35-.26-.43L12.73.46c-.15-.08-.33-.07-.48.02-.15.09-.24.25-.24.42v9.47c-.43-.18-.88-.35-1.34-.48-.11-.03-.21.02-.27.1V.49c0-.17-.09-.33-.24-.42ZM9.43,27.31l-1.1.57-.33.17-1.59.83-.33.17-1.53.8-.2.1-1.63.85-.18.09-1.56.81V5.7l3.29-1.71.14-.07,5.02-2.62v26.01ZM12.99,1.7l1.27.66.33.17,1.59.83.33.17,1.52.79.33.17,3.09,1.61v15.84s-.04.03-.05.06c-.06.1-.04.24.05.31v9.8l-1.27-.66-.33-.17-1.5-.78-.33-.17-1.52-.79-.33-.17-1.59-.83-.33-.17-1.27-.66V1.7Z"/>
      <path class="cls-1" d="M23.92,5.4v27.11c0,.17.09.33.24.42.08.05.17.07.25.07.08,0,.16-.02.23-.06l5.39-2.8.11-.06,1.66-.87.29-.15,1.98-1.03c.16-.08.26-.25.26-.43V.49c0-.17-.09-.33-.24-.42s-.33-.09-.48-.02l-9.43,4.91c-.16.08-.26.25-.26.43ZM33.35,27.31l-1.27.66-.33.17-1.59.83-.33.17-1.52.79-.33.17-1.5.78-.33.17-1.27.66v-8.52c.43-.04.85-.13,1.27-.28.11-.04.22-.08.33-.12,0,0,.01,0,.02,0,.12-.05.18-.2.13-.32-.03-.07-.08-.11-.15-.13-.05-.02-.11-.02-.17,0-.05.02-.1.04-.15.06-.42.16-.84.27-1.27.31V5.7l1.27-.66.26-.13,1.57-.82.33-.17,1.52-.79.33-.17,1.59-.83.33-.17,1.27-.66v26.01Z"/>
    </g>
  </g>
</svg>