<?xml version="1.0" encoding="UTF-8"?>
<svg id="Layer_2" data-name="Layer 2" xmlns="http://www.w3.org/2000/svg" viewBox="0 0 45.62 37.35">
  <defs>
    <style>
      .cls-1 {
        fill: #272525;
      }
    </style>
  </defs>
  <g id="Layer_1-2" data-name="Layer 1">
    <g id="whale">
      <path class="cls-1" d="M3.81,24.43c-.5,1.65-.77,3.32-.08,3.9.22.19.82.54,1.71-.2.46-.38.95-.88,1.41-1.42,4.12,2.44,9.88,3.67,17.23,3.67,3.49,0,7.35-.28,11.56-.83-.27,2.78.43,6.83,1.38,7.57.18.15.4.22.62.22.13,0,.25-.03.37-.08.56-.24.73-.88.81-1.77v-.1c.13-1.4.22-2.42.57-2.7.47-.38,2.17-.19,3.72.02.74.1,2.12.28,2.44-.72.17-.53.44-1.41-4.95-4.23-5.21-12.92-13.79-16.7-20.1-17.59-6.28-.89-11.46.82-12.47,1.18-1.02-.05-5.26-.12-7.13,1.79C.27,13.81-.04,14.65.01,15.59c-.04.54-.23,4.94,3.8,8.85ZM4.41,22.71c-.96-1.05-1.59-2.12-2-3.09.91.63,1.94,1.02,2.8,1.23-.18.37-.48,1.05-.8,1.86ZM7.89,25.44c.69-.91,1.29-1.79,1.67-2.37,4.95,2.78,8.93,2.42,12.79,2.08,1.28-.12,2.5-.23,3.74-.22,3.01.02,6.09,1.81,8,3.17-8.81,1.04-19.44,1.16-26.2-2.67ZM2.07,14.3c1.27-1.3,4.79-1.38,6.04-1.3.12,0,.24-.01.35-.05.05-.02,5.38-2.06,11.82-1.15,7.37,1.04,13.09,5.34,17.06,12.8.26.49.52,1,.76,1.51.39.81.76,1.66,1.1,2.54.07.18.21.33.38.42,1.19.61,2.5,1.38,3.39,1.98-2.47-.32-3.74-.32-4.61.37-.56.45-.81,1.07-.96,1.95-.2-1.31-.3-2.91-.07-4.23.04-.26-.04-.51-.22-.7-.01-.01-.02-.02-.03-.04-.04-.04-.26-.24-.62-.53-.18-.15-.41-.33-.66-.53-1.93-1.49-5.78-4.02-9.71-4.04h-.13c-1.28,0-2.54.11-3.77.22-3.95.35-7.67.68-12.48-2.25-.38-.23-.88-.11-1.12.27-.01.02-.95,1.52-2.09,3.02-.17.22-.34.43-.51.64-.18.22-.36.42-.54.62-.15.17-.3.33-.45.48.04-.21.1-.45.16-.7.07-.27.15-.55.24-.84.08-.28.17-.56.27-.83.34-1,.73-1.97,1.06-2.52.38-.63.89-1.49.24-2.04-.19-.17-.57-.36-1.13-.05-.94-.19-3.76-.97-4.17-3.47-.02-.1-.04-.19-.04-.3-.04-.51.1-.9.43-1.25Z"/>
      <path class="cls-1" d="M18,4.01c-.2-.97-.98-1.79-1.89-1.99-.79-.17-1.54.13-2.06.83-1.07,1.44.23,2.65.93,3.29.18.17.35.33.48.47.58.66.69,1.26.85,2.18l.06.33c.05.28.28.49.56.53.03,0,.05,0,.08,0,.25,0,.48-.15.59-.38.09-.19.12-.4.09-.6.02-.49.11-1.01.19-1.56.16-1.03.33-2.1.12-3.11ZM16.71,6.1c-.08-.12-.17-.23-.28-.35-.17-.19-.36-.37-.57-.56-.93-.86-1.07-1.15-.77-1.56.17-.24.37-.35.59-.35.05,0,.1,0,.15.02.41.09.79.51.89.98.11.55.07,1.18-.01,1.82Z"/>
      <path class="cls-1" d="M19.31,5.34h.65c0-.24.4-.7,1.06-1.05.23-.12.78-.21,1.26-.28.98-.15,1.9-.3,2.34-.87.46-.6.48-1.34.06-1.98-.55-.83-1.7-1.32-2.57-1.1-2.06.52-3.35,3.37-3.45,5.14h0s0,.1,0,.14h.65ZM22.43,1.32s.08-.01.12-.01c.32,0,.82.23,1.04.57.14.21.1.33,0,.46-.17.17-1.04.31-1.51.38-.52.08-1.02.16-1.42.31.45-.83,1.07-1.53,1.76-1.7Z"/>
    </g>
  </g>
</svg>